# xmcd
#
# Track frame offsets:
#	150
#	25065
#	44282
#	61363
#	79185
#	94381
#	111076
#	128569
#	145791
#	163187
#	179906
#	193516
#	208878
#	230394
#	246388
#	261705
#	279623
#	294152
#
# Disc length: 4140 seconds
#
# Revision: 0
# Processed by: cddbd v1.5.2PL0 Copyright (c) Steve Scherf et al.
# Submitted via: audiograbber 1.83.01
#
DISCID=16102a12
DTITLE=Top Hits USA - T873
DYEAR=2006
DGENRE=
TTITLE0=George Harrison - Living In The Material World
TTITLE1=Matt Costa - Cold December
TTITLE2=Pussycat Dolls f/ Timbaland - Wait A Minute
TTITLE3=Young Jeezy - I Luv It
TTITLE4=Plain White T's - Hate (I Really Don't Like You)
TTITLE5=Nelly Furtado - Say It Right
TTITLE6=Keane - Nothing In My Way
TTITLE7=Beyonce - Irreplaceable
TTITLE8=Ben Kweller - Sundress
TTITLE9=Jim Jones - We Fly High
TTITLE10=Strays - You Are The Evolution
TTITLE11=U2 and Green Day - The Saints Are Coming (Studio Version)
TTITLE12=Young Dro - Rubberband Banks
TTITLE13=Gary Allan - A Feelin' Like That
TTITLE14=Billy Ray Cyrus - I Want My Mullet Back
TTITLE15=Rushlow Harris - Bagpipes Cryin'
TTITLE16=Ty Herndon - Right About Now
TTITLE17=Pete Yorn - For Us
EXTD=
EXTT0=
EXTT1=
EXTT2=
EXTT3=
EXTT4=
EXTT5=
EXTT6=
EXTT7=
EXTT8=
EXTT9=
EXTT10=
EXTT11=
EXTT12=
EXTT13=
EXTT14=
EXTT15=
EXTT16=
EXTT17=
PLAYORDER=
